<?xml version="1.0" encoding="utf-8"?>
<!-- Generator: Adobe Illustrator 26.0.3, SVG Export Plug-In . SVG Version: 6.00 Build 0)  -->
<svg version="1.1" id="Layer_1" xmlns="http://www.w3.org/2000/svg" xmlns:xlink="http://www.w3.org/1999/xlink" x="0px" y="0px"
	 viewBox="0 0 369.06 162.17" style="enable-background:new 0 0 369.06 162.17;" xml:space="preserve">
<style type="text/css">
	.st0{fill:none;}
	.st1{fill:#FF4B21;}
</style>
<g>
	<rect x="0" y="0" class="st0" width="369.06" height="162.17"/>
	<g>
		<g>
			<g>
				<path class="st1" d="M62.09,94.77c-9.32,1.23-21.56,4.45-21.56,13.68c0,10.5,21.56,13.19,21.56,13.19V94.77z"/>
				<path class="st1" d="M62.09,40.53c0,0,41.81,5.61,41.81,27.09c0,21.49-32.49,25.91-41.81,27.15V40.53z"/>
			</g>
			<g>
				<path class="st1" d="M118.5,108.18h9.04V93.02h7.64c8.4,0,13.78-4.99,13.78-12.67s-5.38-12.7-13.78-12.7H118.5V108.18z
					 M127.54,85.21v-9.74h6.78c3.48,0,5.56,1.85,5.56,4.88s-2.03,4.88-5.51,4.88L127.54,85.21z"/>
				<path class="st1" d="M170.3,108.18h8.52V95.4c0-6.03,2.08-9.33,6.15-9.33c0.69-0.02,1.38,0.1,2.02,0.37
					c0.64,0.26,1.22,0.66,1.69,1.17c0.48,0.5,0.84,1.1,1.07,1.76c0.23,0.65,0.31,1.35,0.25,2.04v16.79h8.45V89.36
					c0.05-2.6-0.86-5.13-2.56-7.11c-1.69-1.98-4.06-3.27-6.64-3.62c-1.97-0.3-3.99-0.06-5.83,0.71c-1.84,0.76-3.44,2.02-4.61,3.63
					v-3.95h-8.52V108.18z"/>
				<path class="st1" d="M217.54,108.66c1.47,0.07,2.93-0.19,4.28-0.78c1.35-0.58,2.54-1.47,3.49-2.59v2.89h8.49V67.16h-8.49v14.59
					c-0.99-1.1-2.21-1.97-3.58-2.54c-1.37-0.57-2.85-0.83-4.33-0.76c-8.45,0-13.56,5.92-13.56,15.07S208.96,108.66,217.54,108.66z
					 M218.95,101.41c-4.07,0-6.78-3.12-6.78-7.79s2.78-7.82,6.78-7.82c4,0,6.78,3.12,6.78,7.82s-2.64,7.79-6.8,7.79H218.95z"/>
				<path class="st1" d="M260.83,87.17l0.52-8.16c-1.01-0.32-2.06-0.48-3.12-0.47c-1.8,0.05-3.54,0.59-5.05,1.56
					c-1.51,0.97-2.72,2.34-3.51,3.96v-5.04h-8.52v29.17h8.52V97.66c0-8.29,3.64-11.3,7.46-11.3
					C258.4,86.38,259.67,86.65,260.83,87.17z"/>
				<path class="st1" d="M278.5,108.66c2.97-0.06,5.85-1,8.29-2.69c2.44-1.69,4.32-4.07,5.41-6.83c1.09-2.76,1.34-5.78,0.73-8.68
					c-0.62-2.9-2.08-5.56-4.2-7.63c-2.12-2.08-4.81-3.48-7.72-4.03c-2.92-0.55-5.93-0.23-8.66,0.92c-2.74,1.15-5.07,3.09-6.71,5.56
					c-1.64,2.47-2.51,5.38-2.51,8.34c-0.04,2.02,0.33,4.02,1.09,5.89s1.9,3.56,3.34,4.97c1.44,1.41,3.16,2.51,5.04,3.23
					C274.47,108.42,276.49,108.75,278.5,108.66z M278.5,101.41c-4.16,0-6.94-3.16-6.94-7.79s2.78-7.82,6.94-7.82
					c4.16,0,6.78,3.16,6.78,7.82S282.61,101.41,278.5,101.41z"/>
				<path class="st1" d="M298.52,118.73H307v-12.81c0.99,0.94,2.16,1.68,3.44,2.15c1.28,0.47,2.65,0.67,4.01,0.59
					c8.34,0,14.08-5.92,14.08-15.07s-5.26-15.05-13.37-15.05c-1.52-0.09-3.05,0.16-4.46,0.75c-1.41,0.58-2.67,1.48-3.69,2.62v-2.89
					h-8.52L298.52,118.73z M313.39,101.41c-4.09,0-6.89-3.12-6.89-7.82s2.8-7.82,6.89-7.82c4.09,0,6.78,3.14,6.78,7.82
					S317.5,101.41,313.39,101.41z"/>
				<path class="st1" d="M153.27,70.2c0-2.77,2.13-5.01,5.01-5.01c2.94,0,5.19,2.25,5.19,5.01c0,2.82-2.25,5.07-5.19,5.07
					C155.41,75.27,153.27,73.03,153.27,70.2z M154.08,79.02h8.47v29.17h-8.47V79.02z"/>
			</g>
		</g>
		<g>
			<path class="st1" d="M329.96,80.73c-0.71,0-1.33-0.16-1.87-0.47c-0.54-0.31-0.97-0.74-1.27-1.29c-0.3-0.55-0.46-1.17-0.46-1.86
				c0-0.69,0.15-1.31,0.46-1.86c0.3-0.55,0.73-0.98,1.27-1.3c0.54-0.32,1.17-0.48,1.87-0.48c0.69,0,1.31,0.16,1.85,0.48
				c0.54,0.32,0.96,0.75,1.26,1.3c0.3,0.55,0.46,1.17,0.46,1.86c0,0.69-0.15,1.31-0.46,1.86c-0.3,0.55-0.73,0.98-1.26,1.29
				C331.27,80.58,330.65,80.73,329.96,80.73z M329.96,80.09c0.86,0,1.55-0.28,2.08-0.83c0.53-0.56,0.79-1.27,0.79-2.14
				c0-0.87-0.26-1.59-0.79-2.14c-0.53-0.56-1.22-0.83-2.08-0.83c-0.88,0-1.59,0.28-2.12,0.83c-0.53,0.56-0.79,1.27-0.79,2.14
				c0,0.87,0.26,1.59,0.79,2.14C328.37,79.81,329.07,80.09,329.96,80.09z M328.53,79.01v-3.85h1.7c0.41,0,0.73,0.1,0.96,0.31
				c0.23,0.21,0.35,0.5,0.35,0.87c0,0.29-0.08,0.53-0.24,0.73c-0.16,0.2-0.38,0.33-0.65,0.4l1.04,1.52l-1,0.02l-0.93-1.51h-0.38
				v1.51H328.53z M329.37,76.82h0.79c0.16,0,0.28-0.04,0.39-0.11c0.1-0.07,0.15-0.19,0.15-0.36c0-0.16-0.05-0.27-0.15-0.34
				c-0.1-0.07-0.23-0.11-0.39-0.11h-0.79V76.82z"/>
		</g>
	</g>
</g>
</svg>
